<svg width="30" height="30" viewBox="0 0 88 88" fill="none" xmlns="http://www.w3.org/2000/svg">
<g filter="url(#filter0_d_98_139)">
<path d="M39.0942 2.89297C38.2645 4.45465 35.6197 9.34449 33.2082 13.7223C30.7967 18.1257 28.8261 21.7867 28.8261 21.8891C28.8261 21.9915 29.8114 23.6556 31.0042 25.5757C32.197 27.4958 33.5194 29.7743 33.9602 30.5936C34.7121 32.0272 35.5678 35.3554 35.5678 36.6611C35.5419 37.1475 35.4641 37.0707 35.0492 36.2514C34.1157 34.4081 33.8046 34.2289 29.5003 33.0001C25.7145 31.9248 3.18166 27.0094 3.00015 27.2142C2.97422 27.2398 6.31915 30.9008 10.4679 35.3298C14.5907 39.7588 18.4802 43.983 19.1284 44.7255L20.2952 46.0311L18.9469 58.4733C18.1949 65.3089 17.6763 70.9924 17.7541 71.0948C17.8578 71.1716 22.8882 69.0723 28.9557 66.4097L39.9759 61.5711V55.1196C39.9759 48.668 39.9759 48.668 39.3535 47.9512C38.7572 47.26 38.6275 47.2344 35.9049 47.1576C32.171 47.0808 31.9377 47.004 31.9377 46.1335C31.9377 45.0327 33.0008 43.1638 33.6749 43.0614C33.9861 43.0102 35.7752 43.5734 37.6163 44.3158L40.9871 45.6727L44.2283 44.3158C46.0175 43.5734 47.7547 43.0102 48.0659 43.0614C48.5326 43.1126 48.8179 43.4966 49.2846 44.6743C50.1403 46.8504 50.0366 46.9528 46.4323 47.1064C44.7988 47.1832 43.2948 47.3368 43.0874 47.4392C42.0243 47.9512 41.9206 48.54 41.8428 55.1964L41.765 61.6223L47.5214 64.1568C50.6848 65.5393 55.6374 67.741 58.4896 69.0211C62.1716 70.6595 63.7274 71.2228 63.7793 70.9924C63.8571 70.6851 62.9236 63.0816 61.3419 51.4842C61.0048 48.8985 60.7196 46.5687 60.7196 46.3127C60.7196 46.0055 64.1164 42.3701 69.2245 37.1731C73.8919 32.4112 77.9887 28.187 78.3518 27.803L79 27.0862L77.8332 27.2654C73.8141 27.8542 53.6926 32.5392 49.6995 33.8193C47.0806 34.6386 46.7176 34.9458 45.6804 37.1731L45.1618 38.2739L45.3174 36.7379C45.7322 32.8465 46.4064 31.2592 50.6329 24.2444C51.4886 22.8364 52.085 21.6075 51.9554 21.5307C51.8257 21.4539 49.2846 16.5641 46.3027 10.7014C43.3208 4.81307 40.8315 3.05176e-05 40.7537 3.05176e-05C40.676 3.05176e-05 39.9499 1.30569 39.0942 2.89297Z" fill="url(#paint0_linear_98_139)"/>
<path d="M35.7347 67.1974L31.1934 69.4271L32.4257 70.1872C33.4526 70.846 39.7512 74.5706 40.162 74.7733C40.2989 74.8493 48.3547 70.0352 48.3547 69.8832C48.3547 69.8325 47.3505 69.1991 46.141 68.4896C44.9087 67.7548 43.083 66.6653 42.0789 66.0572L40.2532 64.9677L35.7347 67.1974Z" fill="url(#paint1_linear_98_139)"/>
</g>
<defs>
<filter id="filter0_d_98_139" x="0" y="0" width="88" height="87.7742" filterUnits="userSpaceOnUse" color-interpolation-filters="sRGB">
<feFlood flood-opacity="0" result="BackgroundImageFix"/>
<feColorMatrix in="SourceAlpha" type="matrix" values="0 0 0 0 0 0 0 0 0 0 0 0 0 0 0 0 0 0 127 0" result="hardAlpha"/>
<feOffset dx="3" dy="7"/>
<feGaussianBlur stdDeviation="3"/>
<feComposite in2="hardAlpha" operator="out"/>
<feColorMatrix type="matrix" values="0 0 0 0 0 0 0 0 0 0 0 0 0 0 0 0 0 0 0.25 0"/>
<feBlend mode="normal" in2="BackgroundImageFix" result="effect1_dropShadow_98_139"/>
<feBlend mode="normal" in="SourceGraphic" in2="effect1_dropShadow_98_139" result="shape"/>
</filter>
<linearGradient id="paint0_linear_98_139" x1="41" y1="71.0968" x2="41" y2="3.05176e-05" gradientUnits="userSpaceOnUse">
<stop offset="0.171875" stop-color="#FFA715"/>
<stop offset="0.364583" stop-color="#FFEEC2"/>
<stop offset="0.828125" stop-color="#FFBA09"/>
</linearGradient>
<linearGradient id="paint1_linear_98_139" x1="39.774" y1="74.7742" x2="39.774" y2="64.9677" gradientUnits="userSpaceOnUse">
<stop offset="0.171875" stop-color="#FFA715"/>
<stop offset="0.364583" stop-color="#FFEEC2"/>
<stop offset="0.828125" stop-color="#FFBA09"/>
</linearGradient>
</defs>
</svg>
