<svg width="33" height="29" viewBox="0 0 33 29" fill="none" xmlns="http://www.w3.org/2000/svg">
<path d="M16.5 0.291668C12.1715 0.291668 8.25 3.58929 8.25 7.65675C8.25 11.7229 11.8277 16.5783 16.5 23.5417C21.1723 16.5783 24.75 11.7229 24.75 7.65675C24.75 3.58929 20.8299 0.291668 16.5 0.291668ZM16.5 10.625C14.9806 10.625 13.75 9.46896 13.75 8.04167C13.75 6.61438 14.9806 5.45833 16.5 5.45833C18.0194 5.45833 19.25 6.61438 19.25 8.04167C19.25 9.46896 18.0194 10.625 16.5 10.625ZM33 28.7083H0L5.5 18.375H9.81063C10.34 19.203 10.9079 20.0658 11.5046 20.9583H7.1995L4.4495 26.125H28.5491L25.7991 20.9583H21.494C22.0921 20.0658 22.66 19.203 23.188 18.375H27.5L33 28.7083Z" fill="#616161"/>
</svg>
